<svg xmlns="http://www.w3.org/2000/svg" width="64" height="64" viewBox="0 0 64 64">
  <g id="Icon" transform="translate(-849 -223)">
    <g id="Ellipse_4" data-name="Ellipse 4" transform="translate(849 223)" fill="#92b06a" stroke="#92b06a" stroke-width="1">
      <circle cx="32" cy="32" r="32" stroke="none"/>
      <circle cx="32" cy="32" r="31.5" fill="none"/>
    </g>
    <path id="trophy" d="M4.993,1A1,1,0,0,1,6,0H26.052a1,1,0,0,1,1,1q0,1.614-.068,3.072a6,6,0,1,1-2.272,11.78c-1.584,3.73-3.767,5.554-5.682,6.022V26.22l2.858.712a3,3,0,0,1,1.077.51L26.654,30.2a1,1,0,0,1-.6,1.8H6a1,1,0,0,1-.6-1.8L9.08,27.442a3,3,0,0,1,1.077-.51l2.858-.712V21.874c-1.915-.468-4.1-2.292-5.682-6.024A6,6,0,1,1,5.063,4.07Q4.992,2.536,4.993,1Zm.2,5.08a4,4,0,1,0,1.444,7.87A35.909,35.909,0,0,1,5.192,6.08Zm20.223,7.87a4,4,0,1,0,1.444-7.87A36.125,36.125,0,0,1,25.415,13.95ZM7.007,2q.021,1.551.112,2.938a33.3,33.3,0,0,0,1.745,9.334C10.6,18.96,12.983,20,14.018,20a1,1,0,0,1,1,1v5.22A2,2,0,0,1,13.5,28.16l-2.86.712a1,1,0,0,0-.359.17L9,30h14.04l-1.28-.958a1.006,1.006,0,0,0-.361-.17l-2.858-.712a2,2,0,0,1-1.518-1.94V21a1,1,0,0,1,1-1c1.035,0,3.422-1.04,5.155-5.728a33.3,33.3,0,0,0,1.745-9.334q.09-1.389.112-2.938H7.007Z" transform="translate(864.979 239)" fill="#fff"/>
  </g>
</svg>
