<svg xmlns="http://www.w3.org/2000/svg" width="64" height="64" viewBox="0 0 64 64">
    <g id="Icon" transform="translate(-849 -223)">
        <g id="Ellipse_4" data-name="Ellipse 4" transform="translate(849 223)" fill="#92b06a" stroke="#92b06a" stroke-width="1">
            <circle cx="32" cy="32" r="32" stroke="none"/>
            <circle cx="32" cy="32" r="31.5" fill="none"/>
        </g>
        <path id="shop-window" d="M5.94,1.7A2,2,0,0,1,7.46,1H24.54a2,2,0,0,1,1.52.7l5.218,6.088A3,3,0,0,1,32,9.74v.51a4.75,4.75,0,0,1-8.5,2.916,4.751,4.751,0,0,1-7.5,0,4.751,4.751,0,0,1-7.5,0A4.75,4.75,0,0,1,0,10.25V9.74A3,3,0,0,1,.722,7.788L5.942,1.7ZM9.5,10.25a2.75,2.75,0,0,0,5.5,0,1,1,0,0,1,2,0,2.75,2.75,0,0,0,5.5,0,1,1,0,0,1,2,0,2.75,2.75,0,0,0,5.5,0V9.74a1,1,0,0,0-.24-.65L24.54,3H7.46L2.24,9.09A1,1,0,0,0,2,9.74v.51a2.75,2.75,0,0,0,5.5,0,1,1,0,0,1,2,0ZM3,16a1,1,0,0,1,1,1V29H28V17a1,1,0,0,1,2,0V29h1a1,1,0,0,1,0,2H1a1,1,0,0,1,0-2H2V17a1,1,0,0,1,1-1Zm4,1a1,1,0,0,1,1,1v7H24V18a1,1,0,0,1,2,0v7a2,2,0,0,1-2,2H8a2,2,0,0,1-2-2V18A1,1,0,0,1,7,17Z" transform="translate(865 239)" fill="#fff"/>
    </g>
</svg>
